<?xml version="1.0" encoding="UTF-8" standalone="no"?>
<!-- Created with Inkscape (http://www.inkscape.org/) -->

<svg
   width="640"
   height="521.22266"
   viewBox="0 0 640 521.22266"
   version="1.1"
   id="svg1"
   xml:space="preserve"
   xmlns="http://www.w3.org/2000/svg"
   xmlns:svg="http://www.w3.org/2000/svg"><defs
     id="defs1"><filter
       style="color-interpolation-filters:sRGB"
       id="filter46"
       x="-0.011249965"
       y="-0.018947368"
       width="1.0271874"
       height="1.0457895"><feFlood
         result="flood"
         in="SourceGraphic"
         flood-opacity="0.498039"
         flood-color="rgb(0,0,0)"
         id="feFlood45" /><feGaussianBlur
         result="blur"
         in="SourceGraphic"
         stdDeviation="3.000000"
         id="feGaussianBlur45" /><feOffset
         result="offset"
         in="blur"
         dx="3.000000"
         dy="3.000000"
         id="feOffset45" /><feComposite
         result="comp1"
         operator="in"
         in="flood"
         in2="offset"
         id="feComposite45" /><feComposite
         result="comp2"
         operator="over"
         in="SourceGraphic"
         in2="comp1"
         id="feComposite46" /></filter><filter
       style="color-interpolation-filters:sRGB"
       id="filter68-7"
       x="-0.010817384"
       y="-0.010218008"
       width="1.026142"
       height="1.0246935"><feFlood
         result="flood"
         in="SourceGraphic"
         flood-opacity="0.498039"
         flood-color="rgb(0,0,0)"
         id="feFlood67-0" /><feGaussianBlur
         result="blur"
         in="SourceGraphic"
         stdDeviation="3.000000"
         id="feGaussianBlur67-4" /><feOffset
         result="offset"
         in="blur"
         dx="3.000000"
         dy="3.000000"
         id="feOffset67-0" /><feComposite
         result="comp1"
         operator="in"
         in="flood"
         in2="offset"
         id="feComposite67-6" /><feComposite
         result="comp2"
         operator="over"
         in="SourceGraphic"
         in2="comp1"
         id="feComposite68-5" /></filter></defs><g
     id="layer1"
     transform="translate(17812.918,-10818.655)"><g
       id="g301"
       transform="matrix(0.45391734,0,0,0.45391734,-9582.6235,6081.5292)"><path
         id="path295"
         style="fill:#e5e5e5;stroke-width:1.3619;stroke-linecap:round;stroke-linejoin:round;paint-order:fill markers stroke"
         d="m -18114.478,10496.229 a 4.5240123,4.5240123 0 0 0 -4.524,4.524 4.5240123,4.5240123 0 0 0 4.524,4.523 4.5240123,4.5240123 0 0 0 4.523,-4.523 4.5240123,4.5240123 0 0 0 -4.523,-4.524 z m 13.976,0 a 4.5240123,4.5240123 0 0 0 -4.523,4.524 4.5240123,4.5240123 0 0 0 4.523,4.523 4.5240123,4.5240123 0 0 0 4.524,-4.523 4.5240123,4.5240123 0 0 0 -4.524,-4.524 z m 13.977,0 a 4.5240123,4.5240123 0 0 0 -4.525,4.524 4.5240123,4.5240123 0 0 0 4.525,4.523 4.5240123,4.5240123 0 0 0 4.523,-4.523 4.5240123,4.5240123 0 0 0 -4.523,-4.524 z m -32.479,14.524 c -3.031,0 -5.5,2.467 -5.5,5.498 v 349.002 c 0,3.031 2.469,5.5 5.5,5.5 h 629.002 c 3.031,0 5.5,-2.469 5.5,-5.5 v -349.002 c 0,-3.031 -2.469,-5.498 -5.5,-5.498 z m 0,0.998 h 629.002 c 2.492,0 4.502,2.008 4.502,4.5 v 349.002 c 0,2.491 -2.01,4.502 -4.502,4.502 h -629.002 c -2.491,0 -4.502,-2.011 -4.502,-4.502 v -349.002 c 0,-2.492 2.011,-4.5 4.502,-4.5 z m 0,0 c -2.335,0 -4.248,1.765 -4.478,4.039 -0.01,0.151 -0.02,0.305 -0.02,0.461 v 349.002 c 0,2.491 2.011,4.502 4.502,4.502 h 629.002 c 2.492,0 4.502,-2.011 4.502,-4.502 v -349.002 c 0,-2.492 -2.01,-4.5 -4.502,-4.5 z m -0.498,-20.998 a 5,5 0 0 0 -5,5 v 20.349 c 0.08,-2.963 2.517,-5.349 5.498,-5.349 h 629.002 c 3.031,0 5.5,2.467 5.5,5.498 v -20.498 a 5,5 0 0 0 -5,-5 z m 5.024,5.476 a 4.5240123,4.5240123 0 0 1 4.523,4.524 4.5240123,4.5240123 0 0 1 -4.523,4.523 4.5240123,4.5240123 0 0 1 -4.524,-4.523 4.5240123,4.5240123 0 0 1 4.524,-4.524 z m 13.976,0 a 4.5240123,4.5240123 0 0 1 4.524,4.524 4.5240123,4.5240123 0 0 1 -4.524,4.523 4.5240123,4.5240123 0 0 1 -4.523,-4.523 4.5240123,4.5240123 0 0 1 4.523,-4.524 z m 13.977,0 a 4.5240123,4.5240123 0 0 1 4.523,4.524 4.5240123,4.5240123 0 0 1 -4.523,4.523 4.5240123,4.5240123 0 0 1 -4.525,-4.523 4.5240123,4.5240123 0 0 1 4.525,-4.524 z" /><path
         id="path296"
         style="fill:#e5e5e5;stroke-width:1.3619;stroke-linecap:round;stroke-linejoin:round;paint-order:fill markers stroke;filter:url(#filter46)"
         d="m -18114.478,10496.229 a 4.5240123,4.5240123 0 0 0 -4.524,4.524 4.5240123,4.5240123 0 0 0 4.524,4.523 4.5240123,4.5240123 0 0 0 4.523,-4.523 4.5240123,4.5240123 0 0 0 -4.523,-4.524 z m 13.976,0 a 4.5240123,4.5240123 0 0 0 -4.523,4.524 4.5240123,4.5240123 0 0 0 4.523,4.523 4.5240123,4.5240123 0 0 0 4.524,-4.523 4.5240123,4.5240123 0 0 0 -4.524,-4.524 z m 13.977,0 a 4.5240123,4.5240123 0 0 0 -4.525,4.524 4.5240123,4.5240123 0 0 0 4.525,4.523 4.5240123,4.5240123 0 0 0 4.523,-4.523 4.5240123,4.5240123 0 0 0 -4.523,-4.524 z m -32.479,14.524 c -3.031,0 -5.5,2.467 -5.5,5.498 v 349.002 c 0,3.031 2.469,5.5 5.5,5.5 h 629.002 c 3.031,0 5.5,-2.469 5.5,-5.5 v -349.002 c 0,-3.031 -2.469,-5.498 -5.5,-5.498 z m 0,0.998 h 629.002 c 2.492,0 4.502,2.008 4.502,4.5 v 349.002 c 0,2.491 -2.01,4.502 -4.502,4.502 h -629.002 c -2.491,0 -4.502,-2.011 -4.502,-4.502 v -349.002 c 0,-2.492 2.011,-4.5 4.502,-4.5 z m 0,0 c -2.335,0 -4.248,1.765 -4.478,4.039 -0.01,0.151 -0.02,0.305 -0.02,0.461 v 349.002 c 0,2.491 2.011,4.502 4.502,4.502 h 629.002 c 2.492,0 4.502,-2.011 4.502,-4.502 v -349.002 c 0,-2.492 -2.01,-4.5 -4.502,-4.5 z m -0.498,-20.998 a 5,5 0 0 0 -5,5 v 20.349 c 0.08,-2.963 2.517,-5.349 5.498,-5.349 h 629.002 c 3.031,0 5.5,2.467 5.5,5.498 v -20.498 a 5,5 0 0 0 -5,-5 z m 5.024,5.476 a 4.5240123,4.5240123 0 0 1 4.523,4.524 4.5240123,4.5240123 0 0 1 -4.523,4.523 4.5240123,4.5240123 0 0 1 -4.524,-4.523 4.5240123,4.5240123 0 0 1 4.524,-4.524 z m 13.976,0 a 4.5240123,4.5240123 0 0 1 4.524,4.524 4.5240123,4.5240123 0 0 1 -4.524,4.523 4.5240123,4.5240123 0 0 1 -4.523,-4.523 4.5240123,4.5240123 0 0 1 4.523,-4.524 z m 13.977,0 a 4.5240123,4.5240123 0 0 1 4.523,4.524 4.5240123,4.5240123 0 0 1 -4.523,4.523 4.5240123,4.5240123 0 0 1 -4.525,-4.523 4.5240123,4.5240123 0 0 1 4.525,-4.524 z" /><g
         id="g300"
         transform="translate(-604.95872,-1584.2268)"><path
           d="m -17514.543,12074.98 a 5,5 0 0 0 -5,5 v 20.349 c 0.08,-2.963 2.517,-5.349 5.498,-5.349 h 629.002 c 3.031,0 5.5,2.467 5.5,5.498 v -20.498 a 5,5 0 0 0 -5,-5 z m 5.024,5.476 a 4.5240123,4.5240123 0 0 1 4.523,4.524 4.5240123,4.5240123 0 0 1 -4.523,4.523 4.5240123,4.5240123 0 0 1 -4.524,-4.523 4.5240123,4.5240123 0 0 1 4.524,-4.524 z m 13.976,0 a 4.5240123,4.5240123 0 0 1 4.524,4.524 4.5240123,4.5240123 0 0 1 -4.524,4.523 4.5240123,4.5240123 0 0 1 -4.523,-4.523 4.5240123,4.5240123 0 0 1 4.523,-4.524 z m 13.977,0 a 4.5240123,4.5240123 0 0 1 4.523,4.524 4.5240123,4.5240123 0 0 1 -4.523,4.523 4.5240123,4.5240123 0 0 1 -4.525,-4.523 4.5240123,4.5240123 0 0 1 4.525,-4.524 z"
           style="opacity:1;fill:#f7f7f7;stroke-width:7.00403;stroke-linecap:round;stroke-linejoin:round;paint-order:fill markers stroke"
           id="path297" /><path
           d="m -17514.045,12095.978 c -2.335,0 -4.248,1.765 -4.478,4.039 -0.01,0.151 -0.02,0.305 -0.02,0.461 v 349.002 c 0,2.491 2.011,4.502 4.502,4.502 h 629.002 c 2.492,0 4.502,-2.011 4.502,-4.502 v -349.002 c 0,-2.492 -2.01,-4.5 -4.502,-4.5 z"
           style="baseline-shift:baseline;display:inline;overflow:visible;vector-effect:none;fill:#ededed;stroke-linecap:round;stroke-linejoin:round;paint-order:fill markers stroke;enable-background:accumulate;stop-color:#000000;stop-opacity:1"
           id="path298" /><path
           d="m -17514.045,12094.98 c -3.031,0 -5.5,2.467 -5.5,5.498 v 349.002 c 0,3.031 2.469,5.5 5.5,5.5 h 629.002 c 3.031,0 5.5,-2.469 5.5,-5.5 v -349.002 c 0,-3.031 -2.469,-5.498 -5.5,-5.498 z m 0,0.998 h 629.002 c 2.492,0 4.502,2.008 4.502,4.5 v 349.002 c 0,2.491 -2.01,4.502 -4.502,4.502 h -629.002 c -2.491,0 -4.502,-2.011 -4.502,-4.502 v -349.002 c 0,-2.492 2.011,-4.5 4.502,-4.5 z"
           style="baseline-shift:baseline;display:inline;overflow:visible;vector-effect:none;fill:#e5e5e5;stroke-linecap:round;stroke-linejoin:round;paint-order:fill markers stroke;enable-background:accumulate;stop-color:#000000;stop-opacity:1"
           id="path299" /><path
           d="m -17509.519,12080.456 a 4.5240123,4.5240123 0 0 0 -4.524,4.524 4.5240123,4.5240123 0 0 0 4.524,4.523 4.5240123,4.5240123 0 0 0 4.523,-4.523 4.5240123,4.5240123 0 0 0 -4.523,-4.524 z m 13.976,0 a 4.5240123,4.5240123 0 0 0 -4.523,4.524 4.5240123,4.5240123 0 0 0 4.523,4.523 4.5240123,4.5240123 0 0 0 4.524,-4.523 4.5240123,4.5240123 0 0 0 -4.524,-4.524 z m 13.977,0 a 4.5240123,4.5240123 0 0 0 -4.525,4.524 4.5240123,4.5240123 0 0 0 4.525,4.523 4.5240123,4.5240123 0 0 0 4.523,-4.523 4.5240123,4.5240123 0 0 0 -4.523,-4.524 z"
           style="opacity:1;fill:#e5e5e5;stroke-width:1.3619;stroke-linecap:round;stroke-linejoin:round;paint-order:fill markers stroke"
           id="path300" /></g></g><g
       id="g276"
       transform="matrix(0.53402008,0,0,0.53402008,-8312.357,5253.0593)"><ellipse
         style="fill:#f7f7f7;fill-opacity:1;stroke:none;stroke-width:3.41794;stroke-linecap:round;stroke-linejoin:round;stroke-dasharray:none;stroke-opacity:1;paint-order:fill markers stroke;filter:url(#filter68-7)"
         id="ellipse67-5"
         cx="-18051.396"
         cy="10895.65"
         rx="332.79764"
         ry="352.31915"
         transform="rotate(32.530771,-17642.073,12377.407)" /><g
         id="g275"><ellipse
           style="fill:#f7f7f7;fill-opacity:1;stroke:none;stroke-width:3.41794;stroke-linecap:round;stroke-linejoin:round;stroke-dasharray:none;stroke-opacity:1;paint-order:fill markers stroke"
           id="path474-4-7-7-0-2"
           cx="-8627.4238"
           cy="18440.738"
           rx="332.79764"
           ry="352.31915"
           transform="rotate(32.530771)" /><path
           id="path265"
           style="baseline-shift:baseline;display:inline;overflow:visible;vector-effect:none;fill:#17191c;enable-background:accumulate;stop-color:#000000"
           d="m -17173.816,10560.327 v 0.08 c -27.83,0.08 -55.721,3.657 -83.059,10.682 l -0.02,-0.08 c -0.461,0.119 -0.858,0.279 -1.315,0.4 -12.625,3.298 -25.116,7.347 -37.424,12.117 1.211,1.391 2.429,2.808 3.653,4.252 2.515,-1.389 5.145,-2.721 7.89,-3.994 16.295,-4.358 33.041,-6.585 49.99,-6.723 1.93,-0.01 3.875,0.152 5.809,0.19 -13.585,7.445 -23.401,17.52 -27.791,30.129 -4.098,0.634 -8.204,1.171 -12.289,1.949 -1.835,0.349 -3.662,0.712 -5.484,1.09 0.665,0.874 1.332,1.755 2,2.642 1.345,-0.272 2.693,-0.537 4.045,-0.795 3.61,-0.687 7.24,-1.148 10.861,-1.722 -1.937,7.24 -2.037,14.744 -0.475,22.334 1.742,2.467 3.491,4.97 5.246,7.509 -3.821,-10.427 -4.501,-20.706 -1.595,-30.345 17.029,-2.543 34.136,-3.999 51.201,-4.096 8.665,-0.05 17.304,0.314 25.922,0.879 -1.581,6.623 -0.327,13.602 3.3,20.469 -23.812,5.331 -47.93,13.046 -71.949,23.174 0.568,0.841 1.137,1.686 1.705,2.535 24.005,-10.083 48.096,-17.735 71.862,-22.992 2.173,3.506 4.864,6.972 8.117,10.31 0.683,-0.734 1.367,-1.465 2.049,-2.193 -2.809,-2.894 -5.144,-5.838 -7.069,-8.789 6.275,-1.336 12.524,-2.507 18.741,-3.514 1.153,-1.199 2.305,-2.39 3.453,-3.572 -7.911,1.192 -15.877,2.652 -23.881,4.379 -3.733,-6.727 -4.93,-13.407 -3.322,-19.555 12.598,0.929 25.113,2.51 37.492,4.723 0.862,-0.864 1.723,-1.723 2.582,-2.577 -12.888,-2.377 -25.925,-4.074 -39.055,-5.07 2.48,-5.776 7.506,-10.508 14.57,-13.941 10.298,3.587 20.528,7.904 30.645,12.943 0.763,-0.744 1.524,-1.483 2.283,-2.219 -9.552,-4.788 -19.209,-8.942 -28.932,-12.467 3.407,-1.301 7.161,-2.357 11.233,-3.132 3.979,-0.758 8.239,-1.251 12.717,-1.467 1.399,-0.07 2.944,0.07 4.384,0.06 3.054,2.747 6.057,5.735 9.002,8.979 0.725,-0.682 1.446,-1.358 2.166,-2.031 -2.209,-2.425 -4.453,-4.718 -6.728,-6.887 2.511,0.07 5.065,0.22 7.658,0.445 -0.125,-1.023 -0.253,-2.04 -0.383,-3.051 -3.59,-0.293 -7.109,-0.436 -10.543,-0.439 -7.803,-6.874 -15.995,-12.047 -24.486,-15.506 10.716,0.41 21.864,1.547 33.277,3.463 -0.187,-1.218 -0.378,-2.424 -0.572,-3.619 -18.573,-3.239 -37.384,-4.834 -56.234,-4.854 -0.415,0 -0.821,-0.1 -1.237,-0.09 v -0.01 z m -7.813,3.178 c -4.15,0.485 -8.192,1.093 -12.101,1.838 -10.748,2.046 -20.454,5.15 -29.014,9.109 -14.513,-0.665 -28.924,0.08 -43.084,2.42 2.757,-0.874 5.46,-1.779 8.385,-2.553 24.958,-6.519 50.39,-10.139 75.814,-10.814 z m 22.41,1.757 c 10.426,2.553 20.513,7.738 30.084,15.622 -4.999,0.193 -9.801,0.658 -14.252,1.505 -5.458,1.04 -10.413,2.614 -14.818,4.618 -19.152,-6.57 -38.499,-10.765 -57.727,-12.256 6.903,-2.697 14.497,-4.888 22.762,-6.461 10.429,-1.986 21.883,-2.953 33.951,-3.028 z m 61.727,3.895 c 0.175,1.178 0.348,2.365 0.517,3.561 0.692,0.164 1.385,0.333 2.079,0.503 1.041,-0.895 2.077,-1.781 3.109,-2.654 -1.898,-0.488 -3.8,-0.958 -5.705,-1.41 z m 26.558,7.547 c -1.017,0.815 -2.041,1.644 -3.072,2.486 20.317,6.631 38.753,15.126 54.74,24.75 -9.099,-1.755 -18.934,-1.911 -29.388,-0.478 -9.793,-6.419 -21.433,-12.017 -34.623,-16.086 l 0.183,-0.559 c -1.463,1.259 -2.937,2.542 -4.423,3.85 v 0 l -5.534,16.818 c 0,0 0,0 0,0 0.221,2.529 0.432,5.085 0.633,7.666 l 8.207,-24.943 c 11.721,3.613 22.158,8.462 31.139,13.976 -1.859,0.325 -3.703,0.613 -5.596,1.03 -10.702,2.362 -21.973,6.265 -33.633,11.455 0.346,4.536 0.661,9.15 0.948,13.839 6.465,12.396 12.397,26.371 17.724,41.758 -5.157,-0.08 -10.513,-0.473 -16.012,-1.224 0.03,1.014 0.05,2.031 0.07,3.05 5.836,0.78 11.521,1.163 16.992,1.196 6.08,18.049 11.365,37.905 15.613,59.566 0.352,1.792 0.633,3.645 0.969,5.451 -10.718,-0.05 -21.943,-0.872 -33.484,-2.496 -0.02,1.006 -0.04,2.015 -0.06,3.024 11.738,1.633 23.158,2.442 34.074,2.468 4.31,23.848 7.358,48.793 9.045,74.418 -15.01,-0.03 -30.412,-1.111 -45.926,-3.16 -0.06,1.026 -0.113,2.051 -0.172,3.078 15.624,2.04 31.143,3.1 46.282,3.112 0.921,14.924 1.39,30.051 1.427,45.273 1.004,-0.634 2.007,-1.27 3.006,-1.904 -0.07,-14.576 -0.54,-29.06 -1.422,-43.365 15.129,-0.131 29.891,-1.209 43.901,-3.588 16.978,-2.882 31.778,-7.381 44.486,-13.11 0.112,0.288 0.225,0.575 0.336,0.864 0.844,-0.62 1.683,-1.238 2.52,-1.856 -0.03,-0.07 -0.05,-0.138 -0.08,-0.207 0.349,-0.166 0.696,-0.333 1.042,-0.502 12.433,-9.201 23.998,-18.172 34.533,-26.824 3.446,-4.463 6.263,-9.184 8.431,-14.129 0.406,-0.926 0.605,-1.914 0.965,-2.855 1.282,1.944 2.539,3.9 3.772,5.865 0.781,-0.68 1.555,-1.358 2.322,-2.033 -1.579,-2.514 -3.198,-5.01 -4.859,-7.489 4.843,-15.432 3.883,-32.56 -3.623,-50.463 2.874,3.952 5.62,8.027 8.203,12.256 4.652,7.751 9.08,15.678 13.111,23.885 1.126,2.292 2.215,4.598 3.273,6.918 0.769,-0.752 1.528,-1.499 2.274,-2.242 -0.924,-2.006 -1.871,-4 -2.846,-5.985 -3.582,-7.293 -7.492,-14.351 -11.562,-21.289 l 0.09,-0.05 c -0.552,-0.941 -1.175,-1.816 -1.74,-2.743 -10.071,-16.782 -21.509,-32.494 -34.224,-46.959 -0.304,-0.347 -0.532,-0.694 -0.84,-1.041 l -0.06,0.05 c -18.258,-20.595 -39.031,-38.655 -61.855,-53.804 l 0.05,-0.07 c -0.478,-0.317 -1,-0.552 -1.485,-0.855 -22.782,-14.944 -47.527,-27.051 -73.844,-35.797 z m -151.199,0.75 c 20.03,0.983 40.242,4.794 60.272,11.412 -6.657,3.752 -11.535,8.771 -13.912,15.023 -25.475,-1.713 -51.22,-0.766 -76.801,2.934 4.882,-12.396 15.517,-22.325 30.441,-29.369 z m -91.041,13.412 c -0.677,0.305 -1.353,0.611 -2.029,0.92 -0.768,0.346 -1.559,0.604 -2.324,0.961 l 0.04,0.09 c -7.5,3.494 -14.943,7.166 -22.254,11.215 -7.134,3.951 -14.063,8.217 -20.891,12.626 l -0.06,-0.08 c -0.546,0.353 -0.988,0.755 -1.524,1.112 -28.34,18.511 -53.918,40.866 -76.086,66.289 l -0.07,-0.06 c -0.351,0.402 -0.608,0.835 -0.951,1.24 -21.313,24.65 -39.444,52.093 -53.742,81.668 l -0.05,-0.02 c -0.167,0.344 -0.264,0.705 -0.426,1.051 -5.42,11.298 -10.325,22.877 -14.617,34.732 0.822,0.693 1.653,1.389 2.494,2.088 1.408,-3.811 2.898,-7.583 4.457,-11.322 -0.71,4.629 -1.082,9.324 -1.121,14.07 0.949,0.775 1.911,1.552 2.883,2.334 -0.17,-10.256 1.265,-20.248 4.359,-29.863 9.792,-20.361 21.986,-39.419 36.301,-56.912 -4.449,18.245 -3.23,37.79 3.781,57.761 2.98,8.489 7.014,17.052 11.967,25.623 -7.265,10.031 -13.974,20.238 -20.119,30.571 0.816,0.576 1.637,1.154 2.463,1.732 5.93,-9.957 12.388,-19.802 19.357,-29.486 15.707,26.065 40.299,52.148 73.264,76.455 2.727,2.01 5.506,3.988 8.322,5.941 0.554,-0.832 1.11,-1.665 1.666,-2.498 -2.779,-1.926 -5.521,-3.875 -8.209,-5.857 -33.164,-24.454 -57.729,-50.671 -73.148,-76.649 15.155,-20.725 32.65,-40.683 52.302,-59.42 11.823,19.678 29.32,39.466 52.729,58.411 7.196,5.825 14.875,11.374 22.805,16.755 0.588,-0.811 1.178,-1.624 1.767,-2.435 -7.893,-5.35 -15.535,-10.865 -22.685,-16.652 -23.428,-18.96 -40.781,-38.708 -52.381,-58.205 19.159,-18.026 40.362,-34.855 63.367,-50.131 7.014,11.611 16.488,23.339 28.719,34.916 9.509,9.001 20.259,17.416 31.808,25.31 0.624,-0.796 1.247,-1.592 1.871,-2.386 -11.5,-7.835 -22.19,-16.183 -31.617,-25.106 -12.127,-11.479 -21.45,-23.031 -28.303,-34.404 0.678,-0.444 1.326,-0.917 2.006,-1.358 18.616,-12.066 37.586,-22.508 56.686,-31.437 -0.568,-0.844 -1.135,-1.682 -1.701,-2.518 -19.08,8.947 -38.026,19.392 -56.618,31.442 -0.657,0.426 -1.283,0.878 -1.937,1.306 -11.189,-19.635 -14.694,-38.637 -10.875,-55.564 0.381,-1.691 1.059,-3.301 1.586,-4.953 12.525,-4.927 25.475,-9.157 38.793,-12.643 -0.661,-0.857 -1.32,-1.707 -1.977,-2.549 -12.207,3.262 -24.105,7.151 -35.664,11.606 4.145,-10.634 11.392,-20.349 21.711,-28.733 -0.664,-0.776 -1.327,-1.544 -1.986,-2.302 -11.392,9.322 -19.146,20.313 -23.301,32.404 -22.946,9.14 -44.382,20.7 -64.131,34.197 6.288,-15.804 18.108,-30.057 35.893,-41.914 7.269,-4.749 14.663,-9.324 22.285,-13.545 7.973,-4.416 16.098,-8.403 24.295,-12.152 0.976,-0.44 1.954,-0.873 2.933,-1.299 -0.709,-0.802 -1.414,-1.593 -2.117,-2.373 z m 280.612,14.574 c 7.718,0.182 14.934,1.435 21.615,3.727 10.086,6.701 19.083,13.822 26.588,21.23 5.815,5.74 10.724,11.618 14.765,17.535 -16.838,-9.27 -35.3,-16.321 -54.922,-21.259 -2.411,-3.99 -5.506,-7.925 -9.32,-11.69 -3.145,-3.105 -6.801,-6.083 -10.783,-8.947 4.123,-0.426 8.171,-0.688 12.057,-0.596 z m -16.813,1.113 c 5.028,3.366 9.684,6.867 13.432,10.567 2.84,2.803 5.269,5.658 7.269,8.527 -14.501,-3.394 -29.593,-5.68 -45.187,-6.722 -4.858,-0.324 -9.765,-0.529 -14.709,-0.625 10.605,-4.561 20.841,-8.011 30.547,-10.153 2.932,-0.647 5.814,-1.175 8.648,-1.594 z m -63.068,7.208 c -0.843,0.816 -1.688,1.64 -2.535,2.468 1.524,0.367 3.046,0.743 4.566,1.129 -0.08,-1.056 -0.161,-2.108 -0.244,-3.154 -0.595,-0.149 -1.191,-0.297 -1.787,-0.443 z m 2.129,4.894 c -2.52,0.119 -5.048,0.267 -7.584,0.443 -1.082,1.068 -2.167,2.143 -3.256,3.229 3.702,-0.298 7.388,-0.533 11.054,-0.707 -0.07,-0.992 -0.141,-1.981 -0.214,-2.965 z m 118.443,0.906 c 20.834,14.467 39.849,31.451 56.687,50.604 1.885,2.158 3.51,4.302 5.208,6.451 -10.322,-9.683 -21.755,-18.13 -34.071,-25.42 -4.646,-7.801 -10.694,-15.52 -18.205,-22.934 -2.989,-2.95 -6.22,-5.848 -9.619,-8.701 z m -93.746,1.854 c 3.873,0.113 7.74,0.245 11.557,0.5 16.512,1.102 32.427,3.619 47.656,7.371 3.784,6.682 5.082,13.323 3.613,19.455 -19.988,-11.063 -41.037,-20.195 -62.826,-27.326 z m -0.861,2.883 c 21.775,7.131 42.807,16.274 62.761,27.361 -2.394,5.939 -7.45,10.798 -14.623,14.312 -3.52,-3.659 -7.028,-7.334 -10.683,-10.828 -12.055,-11.524 -24.609,-21.714 -37.455,-30.845 z m -4.604,0.431 c 13.725,9.53 27.132,20.295 39.986,32.582 3.356,3.208 6.567,6.595 9.809,9.944 -3.722,1.53 -7.849,2.778 -12.416,3.648 -5.117,0.974 -10.815,1.339 -16.727,1.412 -6.098,-17.78 -13.021,-33.694 -20.652,-47.586 z m -18.756,0.701 c -9.48,5.074 -19.154,10.887 -29.013,17.608 -2.675,1.822 -5.4,3.945 -8.1,5.916 -3.718,3.963 -7.466,8.01 -11.24,12.135 3.588,-2.773 7.164,-5.456 10.724,-8.049 9.713,6.307 21.206,11.812 34.215,15.826 l -19.527,59.346 c -22.805,-6.907 -43.456,-16.141 -61.051,-26.77 -0.656,0.768 -1.312,1.538 -1.969,2.309 17.902,10.873 38.89,20.283 62.084,27.314 l -22.738,69.104 c 0.802,1.496 1.604,2.995 2.404,4.496 14.392,4.202 29.011,7.626 43.631,10.219 0.06,-1.037 0.113,-2.073 0.168,-3.108 -14.571,-2.609 -29.144,-6.047 -43.488,-10.258 l 22.898,-69.595 c 7.81,2.282 15.577,4.21 23.252,5.793 0.02,-1.021 0.03,-2.04 0.05,-3.057 -7.382,-1.538 -14.852,-3.398 -22.361,-5.59 l 19.523,-59.342 c 0.858,0.247 1.715,0.484 2.57,0.713 -0.03,-1.048 -0.06,-2.094 -0.09,-3.137 -0.514,-0.141 -1.029,-0.286 -1.544,-0.433 l 1.402,-4.262 c 0,0 0,0 0,0 -0.09,-2.91 -0.196,-5.796 -0.309,-8.658 l -3.97,12.068 c -12.351,-3.807 -23.274,-8.989 -32.553,-14.877 2.563,-1.836 5.164,-3.894 7.707,-5.627 9.352,-6.374 18.542,-11.985 27.531,-16.873 -0.07,-1.074 -0.138,-2.143 -0.209,-3.209 z m 87.26,4.797 c 20.308,5.342 39.231,13.091 56.385,23.162 8.146,13.963 10.977,27.977 7.49,40.901 -18.806,-16.917 -39.396,-31.661 -61.359,-44.069 1.78,-6.45 0.751,-13.261 -2.516,-19.994 z m -310.967,1.496 c -0.253,0.923 -0.664,1.799 -0.875,2.733 -4.028,17.851 -0.296,37.662 11.299,57.916 -22.988,15.258 -44.182,32.06 -63.363,50.056 -7.792,-13.71 -12.774,-27.273 -14.619,-40.31 -1.725,-12.189 -0.864,-23.937 2.63,-34.99 19.891,-14.01 41.639,-25.926 64.928,-35.405 z m -51.183,5.705 c -7.355,8.556 -12.775,17.819 -16.079,27.665 -18.474,13.077 -35.373,27.897 -50.306,44.335 3.45,-7.757 8.085,-15.2 14.029,-22.238 15.775,-18.252 33.293,-34.945 52.356,-49.762 z m 363.648,15.663 c 22.028,12.485 42.638,27.361 61.436,44.418 -4.587,12.798 -15.25,23.034 -30.344,30.293 -13.623,-21.45 -29.025,-41.49 -46.135,-59.584 7.146,-3.682 12.379,-8.767 15.043,-15.127 z m 59.877,3.23 c 16,10.026 30.263,22.241 42.533,36.496 12.319,21.095 15.55,41.251 10.701,59.01 -11.372,-16.539 -24.456,-32.303 -39.316,-46.971 -2.877,-2.839 -5.913,-5.491 -8.885,-8.221 3.977,-12.879 1.865,-26.666 -5.033,-40.314 z m -77.828,13.223 c 17.147,18.035 32.603,38.027 46.252,59.474 -7.933,3.508 -16.854,6.326 -26.795,8.219 -10.264,1.954 -21.527,2.915 -33.383,3.018 -0.367,-1.98 -0.677,-4.013 -1.062,-5.977 -4.192,-21.37 -9.376,-41.025 -15.356,-58.945 5.705,-0.123 11.212,-0.527 16.232,-1.483 5.17,-0.984 9.878,-2.455 14.112,-4.306 z m -363.039,0.04 c -2.836,10.517 -3.618,21.555 -2.004,32.961 1.935,13.674 7.187,27.795 15.344,41.996 -19.63,18.659 -37.108,38.545 -52.309,59.195 -4.564,-8.036 -8.35,-16.046 -11.129,-23.963 -7.59,-21.619 -8.501,-42.532 -2.361,-61.736 15.389,-17.974 32.922,-34.286 52.459,-48.453 z m 171.578,3.41 c 2.19,3.411 4.386,6.866 6.588,10.365 4.029,3.515 8.373,6.95 12.98,10.293 0.65,-0.765 1.3,-1.529 1.949,-2.291 -7.203,-5.212 -13.741,-10.643 -19.412,-16.24 -0.716,-0.707 -1.418,-1.416 -2.105,-2.127 z m 273.168,26.666 c 2.645,2.446 5.365,4.803 7.931,7.338 15.267,15.07 28.706,31.265 40.25,48.305 -0.555,1.633 -0.96,3.313 -1.656,4.9 -7.014,15.994 -21.317,29.735 -42.322,39.82 -9.684,-24.373 -21.549,-47.712 -35.258,-69.648 15.071,-7.307 25.964,-17.643 31.055,-30.715 z m -496.203,7.834 c -1.32,2.911 -2.514,5.853 -3.5,8.851 -6.042,7.073 -11.818,14.346 -17.147,21.936 6.389,-10.607 13.252,-20.9 20.647,-30.787 z m 462.357,24.098 c 13.729,21.924 25.603,45.274 35.285,69.662 -12.465,5.644 -27.073,10.095 -43.937,12.957 -13.881,2.357 -28.54,3.411 -43.576,3.519 -1.684,-25.628 -4.728,-50.586 -9.026,-74.474 11.831,-0.132 23.097,-1.103 33.41,-3.067 10.269,-1.955 19.56,-4.894 27.844,-8.597 z m -252.705,30.927 c -0.631,0.802 -1.262,1.605 -1.892,2.409 20.475,12.368 43.114,23.035 66.857,31.625 -0.75,-1.378 -1.5,-2.753 -2.25,-4.125 -22.245,-8.256 -43.455,-18.332 -62.715,-29.909 z m 368.832,0.498 c -0.779,0.745 -1.566,1.492 -2.363,2.243 7.014,18.866 8.002,36.522 3.754,52.533 -5.037,-13.498 -11.049,-26.738 -18.073,-39.6 -0.771,0.671 -1.55,1.345 -2.334,2.02 7.545,13.815 13.92,28.059 19.108,42.609 -3.755,10.971 -10.093,21.093 -18.824,30.182 -9.366,9.748 -21.644,18.216 -36.328,25.275 -3.845,-19.514 -9.018,-38.759 -15.428,-57.541 -0.848,0.621 -1.698,1.241 -2.553,1.863 6.306,18.593 11.398,37.639 15.172,56.944 -21.225,9.727 -47.316,16.543 -77.912,19.422 -10.302,0.97 -20.892,1.343 -31.598,1.416 0.192,-4.933 0.341,-9.864 0.446,-14.789 -1.018,0.636 -2.036,1.275 -3.057,1.912 -0.102,4.299 -0.238,8.601 -0.406,12.906 -6.524,0 -13.105,-0.17 -19.731,-0.49 -1.521,0.927 -3.046,1.853 -4.574,2.779 8.134,0.471 16.21,0.713 24.201,0.719 -1.149,26.87 -3.646,53.739 -7.412,80.105 -4.697,0 -9.42,-0.08 -14.166,-0.222 0.447,1.012 0.892,2.026 1.336,3.037 4.15,0.114 8.283,0.173 12.396,0.177 -1.02,6.954 -2.128,13.869 -3.324,20.735 0.724,1.69 1.444,3.378 2.16,5.062 1.539,-8.535 2.941,-17.149 4.209,-25.82 6.542,-0.04 13.047,-0.171 19.473,-0.496 41.573,-2.101 77.342,-10.181 105.828,-23.037 -0.01,2.378 0.08,4.76 0.02,7.136 -0.562,23.073 -3.187,45.276 -7.563,66.426 -27.744,12.809 -62.288,21.247 -102.066,24.287 0.258,0.654 0.515,1.307 0.771,1.959 0.697,0.278 1.395,0.554 2.09,0.83 37.963,-3.131 71.209,-11.165 98.356,-23.33 v 0 c -4.068,18.613 -9.509,36.375 -16.297,53.051 0.939,0.301 1.874,0.599 2.806,0.895 7.122,-17.465 12.81,-36.07 16.944,-55.622 2.977,-1.401 6.01,-2.765 8.83,-4.269 25.263,-13.473 44.012,-31.114 54.922,-51.994 -1.674,6.817 -3.581,13.604 -5.799,20.344 -5.209,15.83 -11.502,31.2 -18.731,46.054 -9.56,19.28 -25.802,35.459 -47.254,48.258 1.294,0.394 2.579,0.782 3.858,1.164 11.739,-7.261 21.904,-15.57 30.242,-24.904 -5.682,9.741 -11.793,19.205 -18.312,28.363 0.701,0.197 1.399,0.392 2.095,0.584 0.331,0.09 0.662,0.183 0.992,0.274 11.724,-16.528 22.128,-34.04 31.053,-52.377 0.146,-0.294 0.33,-0.573 0.473,-0.868 l -0.05,-0.03 c 7.111,-14.709 13.332,-29.905 18.482,-45.56 5.03,-15.286 8.943,-30.772 11.897,-46.334 0.08,-0.379 0.214,-0.736 0.285,-1.116 h -0.06 c 5.978,-32.048 7.528,-64.426 4.791,-96.233 -0.04,-0.524 0,-1.023 -0.03,-1.549 h -0.09 c -2.967,-32.783 -10.539,-64.903 -22.652,-95.377 z m 6.529,27.721 c 6.824,22.58 11.235,45.875 13.264,69.506 0.67,9.064 0,17.746 -1.853,26.045 -2.416,-21.615 -7.419,-42.97 -14.764,-63.744 3.219,-9.987 4.325,-20.656 3.353,-31.807 z m -645.724,30.234 c -3.903,12.956 -7.011,25.939 -9.444,38.901 h -0.04 c -0.05,0.247 -0.06,0.499 -0.101,0.746 -6.082,32.782 -7.456,65.391 -4.57,97.043 h -0.03 c 0.02,0.27 0.08,0.54 0.104,0.81 3.149,33.652 11.128,66.172 23.474,96.606 l -0.101,0.04 c 0.27,0.667 0.641,1.327 0.924,1.994 3.846,9.304 8.096,18.406 12.742,27.279 1.741,-0.482 3.506,-0.983 5.295,-1.502 -2.743,-3.909 -5.267,-7.841 -7.563,-11.791 -6.811,-17.149 -11.055,-35.251 -12.929,-53.972 v 0 c 11.34,17.882 26.641,35.428 45.329,52.095 0.426,-0.957 0.856,-1.917 1.291,-2.88 -20.091,-18.059 -36.026,-37.1 -47.286,-56.366 -1.354,-20.209 0.08,-41.075 4.026,-62.183 11.047,17.919 25.934,35.597 44.099,52.517 6.936,6.461 14.402,12.791 22.317,18.985 0.473,-0.896 0.949,-1.793 1.428,-2.692 -7.694,-6.037 -14.952,-12.202 -21.7,-18.486 -19.031,-17.727 -34.293,-36.223 -45.316,-54.871 3.697,-18.097 9.256,-36.347 16.6,-54.492 1.548,-3.826 3.222,-7.644 4.927,-11.459 16.931,27.907 43.398,55.698 78.438,81.384 0.517,-0.86 1.037,-1.72 1.558,-2.582 -35.447,-26.031 -61.901,-54.177 -78.474,-82.203 2.984,-6.49 6.194,-12.956 9.623,-19.386 -0.824,-0.576 -1.643,-1.153 -2.459,-1.727 -3.173,5.949 -6.162,11.931 -8.965,17.934 -1.169,-2.071 -2.456,-4.143 -3.516,-6.211 -4.999,-9.762 -8.767,-19.467 -11.263,-29.035 -1.251,-0.948 -2.488,-1.895 -3.713,-2.836 2.48,10.968 6.598,22.093 12.306,33.238 1.391,2.714 3.036,5.428 4.61,8.144 -2.058,4.527 -4.014,9.067 -5.854,13.614 -6.976,17.236 -12.302,34.585 -16.027,51.83 -14.817,-26.501 -20.871,-53.221 -16.359,-78.403 2.354,-12.668 5.368,-25.358 9.138,-38.027 -0.849,-0.687 -1.69,-1.373 -2.523,-2.057 z m 349.98,2.918 -18.238,55.428 c -40.181,-12.076 -78.664,-28.968 -112.213,-49.599 -0.592,0.814 -1.183,1.63 -1.773,2.445 33.821,20.847 72.57,37.886 113.033,50.055 l -25.43,77.291 c -48.286,-14.495 -94.52,-35.056 -134.205,-60.372 -0.554,0.832 -1.108,1.664 -1.66,2.495 39.634,25.303 85.679,45.867 133.799,60.421 1.772,-0.94 3.544,-1.882 5.316,-2.828 v 0 l 25.053,-76.148 c 17.405,5.126 35.09,9.343 52.793,12.582 -0.556,-1.136 -1.112,-2.273 -1.67,-3.408 -16.821,-3.162 -33.62,-7.208 -50.166,-12.078 l 17.303,-52.592 c 0,0 0,0 0,0 -0.648,-1.231 -1.295,-2.461 -1.944,-3.69 z m 290.797,2.905 c 7.559,22.216 12.188,45.108 14.061,68.207 -6.467,19.116 -19.757,35.831 -38.975,49.498 -7.079,5.034 -15.046,9.595 -23.682,13.748 -0.132,-25.747 -2.586,-51.55 -7.406,-76.953 15.249,-7.25 28.054,-16.014 37.852,-26.213 8.188,-8.524 14.179,-18.058 18.15,-28.287 z m -58.808,55.765 c 4.793,25.473 7.174,51.347 7.216,77.143 -28.241,12.967 -64.109,21.177 -105.968,23.293 -6.23,0.314 -12.543,0.434 -18.885,0.476 3.753,-26.366 6.238,-53.225 7.381,-80.084 10.831,-0.07 21.549,-0.451 31.982,-1.433 30.571,-2.878 56.785,-9.648 78.274,-19.395 z m 78.363,3.229 c 0.153,12.301 -0.4,24.653 -1.541,37.002 0.183,-9.229 -0.209,-18.444 -0.942,-27.635 1.008,-3.062 1.816,-6.191 2.483,-9.367 z m -670.881,2.129 c 1.81,18.456 8.486,37.267 19.336,55.871 -4.105,20.525 -5.743,40.85 -4.92,60.635 -8.385,-15.685 -13.628,-31.469 -15.043,-46.963 -2.078,-22.776 -1.922,-46.051 0.627,-69.543 z m 426.436,9.16 c -0.09,1.008 -0.182,2.016 -0.274,3.023 0.04,-0.391 0.07,-0.784 0.108,-1.175 0.872,-0.519 1.743,-1.037 2.613,-1.555 -0.816,-0.1 -1.631,-0.193 -2.447,-0.293 z m 239.47,4.367 c 1.273,22.114 -0.131,44.364 -4.287,66.387 -8.766,26.07 -29.315,47.803 -59.396,63.844 -2.096,1.118 -4.382,2.116 -6.569,3.177 4.128,-20.644 6.565,-42.276 7.11,-64.681 0.07,-2.845 -0.03,-5.697 -0.02,-8.545 9.299,-4.386 17.812,-9.282 25.41,-14.686 17.755,-12.626 30.485,-28.049 37.752,-45.496 z m -513.896,43.652 c -3.644,5.834 -7.222,11.639 -10.725,17.407 -0.596,1.45 -1.185,2.898 -1.767,4.343 -0.204,-0.136 -0.409,-0.273 -0.616,-0.408 -0.518,0.859 -1.036,1.719 -1.55,2.576 0.336,0.219 0.673,0.437 1.005,0.659 -9.137,22.996 -16.536,45.267 -21.959,66.388 -4.168,-2.798 -8.254,-5.631 -12.248,-8.494 -0.473,0.894 -0.945,1.788 -1.414,2.678 4.215,3.015 8.532,5.995 12.938,8.937 -1.53,6.138 -3.052,12.275 -4.278,18.219 1.115,-0.443 2.232,-0.89 3.354,-1.34 1.074,-4.952 2.344,-10.035 3.594,-15.103 4.263,2.805 8.619,5.571 13.064,8.295 1.141,-0.475 2.286,-0.953 3.434,-1.434 -5.391,-3.271 -10.651,-6.603 -15.774,-9.99 5.371,-21.118 12.711,-43.414 21.854,-66.483 22.88,15.054 47.859,28.61 74.191,40.426 1.19,-0.566 2.381,-1.135 3.574,-1.705 -27.251,-12.078 -53.065,-26.017 -76.607,-41.547 3.108,-7.735 6.418,-15.547 9.93,-23.424 z m 190.863,21.819 c -1.317,0.713 -2.634,1.426 -3.951,2.137 19.98,5.102 40.182,9.155 60.303,12.066 0.126,-0.998 0.251,-1.997 0.377,-2.996 -18.919,-2.748 -37.914,-6.51 -56.729,-11.207 z m 74.617,13.504 c -0.125,0.996 -0.251,1.991 -0.377,2.986 7.272,0.808 14.523,1.463 21.737,1.959 -0.459,-1.035 -0.92,-2.071 -1.381,-3.107 -6.633,-0.48 -13.296,-1.094 -19.979,-1.838 z m -106.447,3.47 c -1.272,0.668 -2.543,1.336 -3.815,2 1.272,-0.664 2.543,-1.33 3.815,-1.998 z m -307.482,4.239 c 2.866,7.617 6.752,15.209 11.128,22.767 0.934,13.304 3.037,26.335 6.364,38.971 -7.728,-19.801 -13.594,-40.466 -17.492,-61.738 z m 299.736,9.705 -12.752,38.76 c -16.835,-5.052 -33.427,-10.804 -49.613,-17.206 -1.226,0.597 -2.451,1.193 -3.674,1.786 17.052,6.836 34.561,12.954 52.342,18.291 l -21.922,66.623 c -41.366,-12.411 -79.475,-28.478 -113.207,-46.952 -1.174,0.504 -2.346,1.006 -3.514,1.504 34.418,19.049 73.406,35.584 115.785,48.305 l -18.105,55.029 c -52.919,-15.886 -100.66,-38.226 -139.922,-64.164 0.5,-7.392 1.262,-15 2.365,-22.865 -1.064,0.415 -2.126,0.826 -3.184,1.234 -0.897,6.72 -1.551,13.261 -2.027,19.661 -6.012,-4.043 -11.86,-8.153 -17.486,-12.34 -1.136,0.412 -2.267,0.821 -3.393,1.224 6.576,4.96 13.463,9.812 20.588,14.563 -1.041,16.937 -0.512,32.614 2.049,46.392 v 0.03 c -15.872,-10.783 -30.103,-22.25 -42.371,-34.162 -0.384,1.108 -0.76,2.208 -1.125,3.3 12.892,12.36 27.85,24.199 44.484,35.278 2.484,11.189 6.256,21.149 11.401,29.625 -15.246,-10.753 -28.684,-22.301 -39.516,-34.44 -6.599,-7.428 -12.839,-15.157 -18.709,-23.162 -0.367,1.199 -0.725,2.387 -1.068,3.565 5.407,7.274 11.121,14.32 17.132,21.117 l -0.04,0.03 c 0.258,0.291 0.576,0.568 0.836,0.858 17.801,19.975 38.155,37.749 60.813,52.802 0.08,0.05 0.144,0.117 0.222,0.168 h 0.01 c 25.508,16.914 53.85,30.447 84.778,39.649 30.418,9.05 61.867,13.39 93.412,13.304 v 0.08 c 0.317,0 0.633,-0.07 0.951,-0.08 6.016,-0.03 12.036,-0.234 18.051,-0.597 0.953,-2.058 1.906,-4.181 2.855,-6.369 -0.626,0.226 -1.253,0.442 -1.881,0.648 -34.383,0.08 -71.833,-5.347 -108.82,-16.203 l 7.418,-22.547 c 37.531,11.054 75.115,17.622 110.594,19.742 0.368,-1.006 0.735,-2.022 1.101,-3.047 -35.476,-2.007 -73.131,-8.474 -110.756,-19.547 l 13.174,-40.039 c 37.199,10.97 74.223,17.988 109.569,21.213 0.274,-0.985 0.547,-1.975 0.82,-2.97 -35.275,-3.17 -72.267,-10.138 -109.449,-21.096 l 18.103,-55.024 c 35.571,10.496 70.791,17.496 104.629,21.258 0.211,-0.981 0.423,-1.966 0.633,-2.953 -33.72,-3.731 -68.845,-10.697 -104.322,-21.158 l 21.918,-66.619 c 31.302,9.235 63.362,16.036 95.148,20.125 0.166,-0.993 0.332,-1.987 0.496,-2.983 -31.624,-4.069 -63.537,-10.839 -94.697,-20.027 l 12.588,-38.26 c -0.905,-0.45 -1.809,-0.902 -2.713,-1.353 z m 158.533,41.144 c -0.804,3.647 -1.636,7.274 -2.494,10.879 0.94,0.394 1.878,0.788 2.816,1.18 0.571,-2.39 1.131,-4.791 1.678,-7.199 -0.663,-1.616 -1.329,-3.236 -2,-4.86 z m -55.74,20.52 c -0.164,0.996 -0.329,1.991 -0.494,2.984 14.462,1.396 28.827,2.215 42.996,2.43 -2.495,-1.052 -4.997,-2.113 -7.506,-3.182 -11.562,-0.35 -23.244,-1.099 -34.996,-2.232 z m 48.748,8.035 c -1.14,4.306 -2.294,8.599 -3.524,12.818 -5.33,18.293 -11.287,35.28 -17.695,51.037 -13.221,0.02 -26.797,-0.499 -40.65,-1.574 -0.21,0.991 -0.42,1.978 -0.631,2.963 13.651,1.069 27.038,1.603 40.092,1.617 -8.39,20.221 -17.608,38.087 -27.399,53.528 -8.443,0 -17.037,-0.218 -25.756,-0.684 -0.271,1.004 -0.543,2.003 -0.816,2.998 8.33,0.458 16.549,0.699 24.635,0.725 -3.63,5.556 -7.308,10.896 -11.082,15.75 -6.336,8.148 -12.865,15.174 -19.512,21.236 -1.824,0 -3.656,0 -5.494,-0.03 -0.352,1.043 -0.704,2.079 -1.057,3.107 0.982,0.02 1.962,0.03 2.94,0.04 -1.366,1.158 -2.737,2.273 -4.112,3.344 -0.61,1.743 -1.223,3.462 -1.838,5.158 3.57,-2.568 7.106,-5.425 10.6,-8.552 34.35,-0.131 66.061,-4.652 92.895,-13.618 -1.388,0.706 -2.74,1.481 -4.145,2.155 -20.848,9.871 -42.369,17.55 -64.254,23.021 -11.969,2.935 -24.866,4.868 -38.418,5.873 -0.614,1.584 -1.231,3.145 -1.851,4.682 13.74,-1.699 27.425,-4.249 40.978,-7.637 0.719,-0.176 1.504,-0.279 2.217,-0.463 l -0.02,-0.07 c 20.624,-5.3 40.906,-12.577 60.61,-21.756 l 0.04,0.09 c 0.669,-0.312 1.296,-0.699 1.961,-1.018 6.818,-3.228 13.589,-6.602 20.248,-10.291 6.57,-3.638 12.961,-7.544 19.271,-11.572 0.538,-0.337 1.139,-0.628 1.67,-0.971 l -0.05,-0.08 c 3.586,-2.315 7.126,-4.693 10.623,-7.129 -0.256,-1.026 -0.517,-2.061 -0.785,-3.103 -2.506,1.759 -5.036,3.488 -7.59,5.183 2.472,-2.064 4.899,-4.193 7.282,-6.38 -0.282,-1.087 -0.57,-2.182 -0.864,-3.286 -8.891,8.184 -18.379,15.54 -28.382,22.051 -29.1,13.505 -66.398,20.637 -107.94,21.184 5.92,-5.662 11.716,-12.088 17.342,-19.322 4.211,-5.416 8.297,-11.408 12.318,-17.665 14.142,-0.07 27.929,-0.698 41.115,-2.08 22.855,-2.393 44.075,-6.768 63.116,-13.037 -0.28,-0.992 -0.564,-1.99 -0.852,-2.994 -18.809,6.257 -39.823,10.667 -62.576,13.051 -12.468,1.306 -25.512,1.899 -38.863,2.021 9.683,-15.513 18.759,-33.376 27.025,-53.457 21.288,-0.12 41.758,-1.48 60.858,-4.363 -0.33,-0.961 -0.662,-1.927 -0.997,-2.894 -18.427,2.748 -38.156,4.078 -58.671,4.244 6.273,-15.55 12.112,-32.245 17.343,-50.198 1.199,-4.111 2.332,-8.286 3.444,-12.48 -0.933,-0.388 -1.866,-0.778 -2.801,-1.168 z m -404.133,30.605 c -1.112,0.338 -2.215,0.671 -3.312,0.997 0.9,1.06 1.816,2.117 2.748,3.171 0.411,-1.118 0.83,-2.241 1.253,-3.371 -0.23,-0.265 -0.46,-0.531 -0.689,-0.797 z m -5.185,1.547 c -0.989,0.29 -1.97,0.574 -2.946,0.854 1.688,2.824 3.417,5.622 5.188,8.39 0.412,-1.176 0.833,-2.36 1.261,-3.55 -1.186,-1.885 -2.355,-3.783 -3.503,-5.694 z m 62.906,3.575 c 39.248,25.714 86.749,47.785 139.273,63.56 l -13.176,40.043 c -46.337,-13.928 -88.507,-33.65 -123.267,-56.672 -0.217,-1.028 -0.485,-2.001 -0.68,-3.051 -2.418,-13.009 -3.025,-27.82 -2.15,-43.88 z m 455.302,5.326 c -15.101,6.431 -31.938,11.581 -50.222,15.355 0.329,0.962 0.654,1.922 0.978,2.877 19.322,-3.998 37.112,-9.515 52.971,-16.49 -9.539,19.664 -21.07,37.523 -34.309,53.338 -2.02,0.938 -4.075,1.853 -6.164,2.74 0.295,1.022 0.586,2.038 0.873,3.049 0.247,-0.104 0.493,-0.208 0.739,-0.313 -0.209,0.235 -0.419,0.47 -0.629,0.703 0.313,1.105 0.621,2.203 0.924,3.293 2.078,-2.291 4.119,-4.63 6.125,-7.011 8.057,-3.777 15.721,-7.856 22.601,-12.481 -8.766,8.419 -17.946,16.403 -27.513,23.914 0.285,1.058 0.566,2.11 0.841,3.155 18.034,-14.04 34.715,-29.734 49.834,-46.848 0.54,-0.593 1.124,-1.16 1.649,-1.762 l -0.07,-0.06 c 4.022,-4.612 7.931,-9.322 11.725,-14.127 -1.031,-0.295 -2.067,-0.594 -3.107,-0.897 -4.016,5.06 -8.161,10.012 -12.436,14.85 -10.274,11.264 -23.507,20.866 -39.072,28.826 11.913,-15.015 22.389,-31.69 31.15,-49.889 -2.277,-0.725 -4.573,-1.466 -6.887,-2.222 z m -451.496,46.008 c 34.498,22.402 75.993,41.482 121.354,55.123 l -7.42,22.548 c -36.943,-11.132 -71.01,-26.988 -99.234,-45.709 -6.664,-8.64 -11.561,-19.37 -14.7,-31.962 z m 22.532,40.435 c 26.511,16.27 57.294,30.08 90.464,40.082 l -1.277,3.883 c -30.139,-9.117 -57.798,-22.363 -82.711,-38.893 -2.29,-1.528 -4.427,-3.245 -6.476,-5.072 z m 93.341,40.943 c 32.992,9.692 66.304,15.03 97.625,16.098 -2.305,0.304 -4.612,0.523 -6.919,0.565 -31.056,0.172 -62.015,-4.028 -91.983,-12.786 z" /></g></g><g
       id="g283"
       transform="matrix(0.40852669,0,0,0.40852669,-10034.2,6729.8687)"><path
         id="path277"
         style="fill:#e5e5e5;stroke-width:1.3619;stroke-linecap:round;stroke-linejoin:round;paint-order:fill markers stroke"
         d="m -18114.478,10496.229 a 4.5240123,4.5240123 0 0 0 -4.524,4.524 4.5240123,4.5240123 0 0 0 4.524,4.523 4.5240123,4.5240123 0 0 0 4.523,-4.523 4.5240123,4.5240123 0 0 0 -4.523,-4.524 z m 13.976,0 a 4.5240123,4.5240123 0 0 0 -4.523,4.524 4.5240123,4.5240123 0 0 0 4.523,4.523 4.5240123,4.5240123 0 0 0 4.524,-4.523 4.5240123,4.5240123 0 0 0 -4.524,-4.524 z m 13.977,0 a 4.5240123,4.5240123 0 0 0 -4.525,4.524 4.5240123,4.5240123 0 0 0 4.525,4.523 4.5240123,4.5240123 0 0 0 4.523,-4.523 4.5240123,4.5240123 0 0 0 -4.523,-4.524 z m -32.479,14.524 c -3.031,0 -5.5,2.467 -5.5,5.498 v 349.002 c 0,3.031 2.469,5.5 5.5,5.5 h 629.002 c 3.031,0 5.5,-2.469 5.5,-5.5 v -349.002 c 0,-3.031 -2.469,-5.498 -5.5,-5.498 z m 0,0.998 h 629.002 c 2.492,0 4.502,2.008 4.502,4.5 v 349.002 c 0,2.491 -2.01,4.502 -4.502,4.502 h -629.002 c -2.491,0 -4.502,-2.011 -4.502,-4.502 v -349.002 c 0,-2.492 2.011,-4.5 4.502,-4.5 z m 0,0 c -2.335,0 -4.248,1.765 -4.478,4.039 -0.01,0.151 -0.02,0.305 -0.02,0.461 v 349.002 c 0,2.491 2.011,4.502 4.502,4.502 h 629.002 c 2.492,0 4.502,-2.011 4.502,-4.502 v -349.002 c 0,-2.492 -2.01,-4.5 -4.502,-4.5 z m -0.498,-20.998 a 5,5 0 0 0 -5,5 v 20.349 c 0.08,-2.963 2.517,-5.349 5.498,-5.349 h 629.002 c 3.031,0 5.5,2.467 5.5,5.498 v -20.498 a 5,5 0 0 0 -5,-5 z m 5.024,5.476 a 4.5240123,4.5240123 0 0 1 4.523,4.524 4.5240123,4.5240123 0 0 1 -4.523,4.523 4.5240123,4.5240123 0 0 1 -4.524,-4.523 4.5240123,4.5240123 0 0 1 4.524,-4.524 z m 13.976,0 a 4.5240123,4.5240123 0 0 1 4.524,4.524 4.5240123,4.5240123 0 0 1 -4.524,4.523 4.5240123,4.5240123 0 0 1 -4.523,-4.523 4.5240123,4.5240123 0 0 1 4.523,-4.524 z m 13.977,0 a 4.5240123,4.5240123 0 0 1 4.523,4.524 4.5240123,4.5240123 0 0 1 -4.523,4.523 4.5240123,4.5240123 0 0 1 -4.525,-4.523 4.5240123,4.5240123 0 0 1 4.525,-4.524 z" /><path
         id="path278"
         style="fill:#e5e5e5;stroke-width:1.3619;stroke-linecap:round;stroke-linejoin:round;paint-order:fill markers stroke;filter:url(#filter46)"
         d="m -18114.478,10496.229 a 4.5240123,4.5240123 0 0 0 -4.524,4.524 4.5240123,4.5240123 0 0 0 4.524,4.523 4.5240123,4.5240123 0 0 0 4.523,-4.523 4.5240123,4.5240123 0 0 0 -4.523,-4.524 z m 13.976,0 a 4.5240123,4.5240123 0 0 0 -4.523,4.524 4.5240123,4.5240123 0 0 0 4.523,4.523 4.5240123,4.5240123 0 0 0 4.524,-4.523 4.5240123,4.5240123 0 0 0 -4.524,-4.524 z m 13.977,0 a 4.5240123,4.5240123 0 0 0 -4.525,4.524 4.5240123,4.5240123 0 0 0 4.525,4.523 4.5240123,4.5240123 0 0 0 4.523,-4.523 4.5240123,4.5240123 0 0 0 -4.523,-4.524 z m -32.479,14.524 c -3.031,0 -5.5,2.467 -5.5,5.498 v 349.002 c 0,3.031 2.469,5.5 5.5,5.5 h 629.002 c 3.031,0 5.5,-2.469 5.5,-5.5 v -349.002 c 0,-3.031 -2.469,-5.498 -5.5,-5.498 z m 0,0.998 h 629.002 c 2.492,0 4.502,2.008 4.502,4.5 v 349.002 c 0,2.491 -2.01,4.502 -4.502,4.502 h -629.002 c -2.491,0 -4.502,-2.011 -4.502,-4.502 v -349.002 c 0,-2.492 2.011,-4.5 4.502,-4.5 z m 0,0 c -2.335,0 -4.248,1.765 -4.478,4.039 -0.01,0.151 -0.02,0.305 -0.02,0.461 v 349.002 c 0,2.491 2.011,4.502 4.502,4.502 h 629.002 c 2.492,0 4.502,-2.011 4.502,-4.502 v -349.002 c 0,-2.492 -2.01,-4.5 -4.502,-4.5 z m -0.498,-20.998 a 5,5 0 0 0 -5,5 v 20.349 c 0.08,-2.963 2.517,-5.349 5.498,-5.349 h 629.002 c 3.031,0 5.5,2.467 5.5,5.498 v -20.498 a 5,5 0 0 0 -5,-5 z m 5.024,5.476 a 4.5240123,4.5240123 0 0 1 4.523,4.524 4.5240123,4.5240123 0 0 1 -4.523,4.523 4.5240123,4.5240123 0 0 1 -4.524,-4.523 4.5240123,4.5240123 0 0 1 4.524,-4.524 z m 13.976,0 a 4.5240123,4.5240123 0 0 1 4.524,4.524 4.5240123,4.5240123 0 0 1 -4.524,4.523 4.5240123,4.5240123 0 0 1 -4.523,-4.523 4.5240123,4.5240123 0 0 1 4.523,-4.524 z m 13.977,0 a 4.5240123,4.5240123 0 0 1 4.523,4.524 4.5240123,4.5240123 0 0 1 -4.523,4.523 4.5240123,4.5240123 0 0 1 -4.525,-4.523 4.5240123,4.5240123 0 0 1 4.525,-4.524 z" /><g
         id="g282"
         transform="translate(-604.95872,-1584.2268)"><path
           d="m -17514.543,12074.98 a 5,5 0 0 0 -5,5 v 20.349 c 0.08,-2.963 2.517,-5.349 5.498,-5.349 h 629.002 c 3.031,0 5.5,2.467 5.5,5.498 v -20.498 a 5,5 0 0 0 -5,-5 z m 5.024,5.476 a 4.5240123,4.5240123 0 0 1 4.523,4.524 4.5240123,4.5240123 0 0 1 -4.523,4.523 4.5240123,4.5240123 0 0 1 -4.524,-4.523 4.5240123,4.5240123 0 0 1 4.524,-4.524 z m 13.976,0 a 4.5240123,4.5240123 0 0 1 4.524,4.524 4.5240123,4.5240123 0 0 1 -4.524,4.523 4.5240123,4.5240123 0 0 1 -4.523,-4.523 4.5240123,4.5240123 0 0 1 4.523,-4.524 z m 13.977,0 a 4.5240123,4.5240123 0 0 1 4.523,4.524 4.5240123,4.5240123 0 0 1 -4.523,4.523 4.5240123,4.5240123 0 0 1 -4.525,-4.523 4.5240123,4.5240123 0 0 1 4.525,-4.524 z"
           style="opacity:1;fill:#f7f7f7;stroke-width:7.00403;stroke-linecap:round;stroke-linejoin:round;paint-order:fill markers stroke"
           id="path279" /><path
           d="m -17514.045,12095.978 c -2.335,0 -4.248,1.765 -4.478,4.039 -0.01,0.151 -0.02,0.305 -0.02,0.461 v 349.002 c 0,2.491 2.011,4.502 4.502,4.502 h 629.002 c 2.492,0 4.502,-2.011 4.502,-4.502 v -349.002 c 0,-2.492 -2.01,-4.5 -4.502,-4.5 z"
           style="baseline-shift:baseline;display:inline;overflow:visible;vector-effect:none;fill:#ededed;stroke-linecap:round;stroke-linejoin:round;paint-order:fill markers stroke;enable-background:accumulate;stop-color:#000000;stop-opacity:1"
           id="path280" /><path
           d="m -17514.045,12094.98 c -3.031,0 -5.5,2.467 -5.5,5.498 v 349.002 c 0,3.031 2.469,5.5 5.5,5.5 h 629.002 c 3.031,0 5.5,-2.469 5.5,-5.5 v -349.002 c 0,-3.031 -2.469,-5.498 -5.5,-5.498 z m 0,0.998 h 629.002 c 2.492,0 4.502,2.008 4.502,4.5 v 349.002 c 0,2.491 -2.01,4.502 -4.502,4.502 h -629.002 c -2.491,0 -4.502,-2.011 -4.502,-4.502 v -349.002 c 0,-2.492 2.011,-4.5 4.502,-4.5 z"
           style="baseline-shift:baseline;display:inline;overflow:visible;vector-effect:none;fill:#e5e5e5;stroke-linecap:round;stroke-linejoin:round;paint-order:fill markers stroke;enable-background:accumulate;stop-color:#000000;stop-opacity:1"
           id="path281" /><path
           d="m -17509.519,12080.456 a 4.5240123,4.5240123 0 0 0 -4.524,4.524 4.5240123,4.5240123 0 0 0 4.524,4.523 4.5240123,4.5240123 0 0 0 4.523,-4.523 4.5240123,4.5240123 0 0 0 -4.523,-4.524 z m 13.976,0 a 4.5240123,4.5240123 0 0 0 -4.523,4.524 4.5240123,4.5240123 0 0 0 4.523,4.523 4.5240123,4.5240123 0 0 0 4.524,-4.523 4.5240123,4.5240123 0 0 0 -4.524,-4.524 z m 13.977,0 a 4.5240123,4.5240123 0 0 0 -4.525,4.524 4.5240123,4.5240123 0 0 0 4.525,4.523 4.5240123,4.5240123 0 0 0 4.523,-4.523 4.5240123,4.5240123 0 0 0 -4.523,-4.524 z"
           style="opacity:1;fill:#e5e5e5;stroke-width:1.3619;stroke-linecap:round;stroke-linejoin:round;paint-order:fill markers stroke"
           id="path282" /></g></g><path
       id="path229"
       style="fill:none;fill-opacity:1;stroke:#e63232;stroke-width:2.40309;stroke-linecap:round;stroke-linejoin:round;stroke-dasharray:4.80618, 4.80618;stroke-dashoffset:0;stroke-opacity:1;paint-order:fill markers stroke"
       d="m -17611.679,11238.434 c -155.687,40.305 248.533,-489.348 225.824,-328.679 m -117.44,-26.344 c 110.949,-191.665 48.18,532.575 -26.844,388.41 m -70.714,-349.411 c 2.643,-200.332 317.876,461.276 179.049,334.087 m -230.733,-277.47 c -196.341,-8.199 428.364,307.46 355.803,187.027 m -379.89,-25.597 c -135.439,159.87 528.034,-194.013 335.544,-189.751" /><g
       id="g295"
       transform="matrix(0.36313408,0,0,0.36313408,-11198.838,7350.4184)"><path
         id="path289"
         style="fill:#e5e5e5;stroke-width:1.3619;stroke-linecap:round;stroke-linejoin:round;paint-order:fill markers stroke"
         d="m -18114.478,10496.229 a 4.5240123,4.5240123 0 0 0 -4.524,4.524 4.5240123,4.5240123 0 0 0 4.524,4.523 4.5240123,4.5240123 0 0 0 4.523,-4.523 4.5240123,4.5240123 0 0 0 -4.523,-4.524 z m 13.976,0 a 4.5240123,4.5240123 0 0 0 -4.523,4.524 4.5240123,4.5240123 0 0 0 4.523,4.523 4.5240123,4.5240123 0 0 0 4.524,-4.523 4.5240123,4.5240123 0 0 0 -4.524,-4.524 z m 13.977,0 a 4.5240123,4.5240123 0 0 0 -4.525,4.524 4.5240123,4.5240123 0 0 0 4.525,4.523 4.5240123,4.5240123 0 0 0 4.523,-4.523 4.5240123,4.5240123 0 0 0 -4.523,-4.524 z m -32.479,14.524 c -3.031,0 -5.5,2.467 -5.5,5.498 v 349.002 c 0,3.031 2.469,5.5 5.5,5.5 h 629.002 c 3.031,0 5.5,-2.469 5.5,-5.5 v -349.002 c 0,-3.031 -2.469,-5.498 -5.5,-5.498 z m 0,0.998 h 629.002 c 2.492,0 4.502,2.008 4.502,4.5 v 349.002 c 0,2.491 -2.01,4.502 -4.502,4.502 h -629.002 c -2.491,0 -4.502,-2.011 -4.502,-4.502 v -349.002 c 0,-2.492 2.011,-4.5 4.502,-4.5 z m 0,0 c -2.335,0 -4.248,1.765 -4.478,4.039 -0.01,0.151 -0.02,0.305 -0.02,0.461 v 349.002 c 0,2.491 2.011,4.502 4.502,4.502 h 629.002 c 2.492,0 4.502,-2.011 4.502,-4.502 v -349.002 c 0,-2.492 -2.01,-4.5 -4.502,-4.5 z m -0.498,-20.998 a 5,5 0 0 0 -5,5 v 20.349 c 0.08,-2.963 2.517,-5.349 5.498,-5.349 h 629.002 c 3.031,0 5.5,2.467 5.5,5.498 v -20.498 a 5,5 0 0 0 -5,-5 z m 5.024,5.476 a 4.5240123,4.5240123 0 0 1 4.523,4.524 4.5240123,4.5240123 0 0 1 -4.523,4.523 4.5240123,4.5240123 0 0 1 -4.524,-4.523 4.5240123,4.5240123 0 0 1 4.524,-4.524 z m 13.976,0 a 4.5240123,4.5240123 0 0 1 4.524,4.524 4.5240123,4.5240123 0 0 1 -4.524,4.523 4.5240123,4.5240123 0 0 1 -4.523,-4.523 4.5240123,4.5240123 0 0 1 4.523,-4.524 z m 13.977,0 a 4.5240123,4.5240123 0 0 1 4.523,4.524 4.5240123,4.5240123 0 0 1 -4.523,4.523 4.5240123,4.5240123 0 0 1 -4.525,-4.523 4.5240123,4.5240123 0 0 1 4.525,-4.524 z" /><path
         id="path290"
         style="fill:#e5e5e5;stroke-width:1.3619;stroke-linecap:round;stroke-linejoin:round;paint-order:fill markers stroke;filter:url(#filter46)"
         d="m -18114.478,10496.229 a 4.5240123,4.5240123 0 0 0 -4.524,4.524 4.5240123,4.5240123 0 0 0 4.524,4.523 4.5240123,4.5240123 0 0 0 4.523,-4.523 4.5240123,4.5240123 0 0 0 -4.523,-4.524 z m 13.976,0 a 4.5240123,4.5240123 0 0 0 -4.523,4.524 4.5240123,4.5240123 0 0 0 4.523,4.523 4.5240123,4.5240123 0 0 0 4.524,-4.523 4.5240123,4.5240123 0 0 0 -4.524,-4.524 z m 13.977,0 a 4.5240123,4.5240123 0 0 0 -4.525,4.524 4.5240123,4.5240123 0 0 0 4.525,4.523 4.5240123,4.5240123 0 0 0 4.523,-4.523 4.5240123,4.5240123 0 0 0 -4.523,-4.524 z m -32.479,14.524 c -3.031,0 -5.5,2.467 -5.5,5.498 v 349.002 c 0,3.031 2.469,5.5 5.5,5.5 h 629.002 c 3.031,0 5.5,-2.469 5.5,-5.5 v -349.002 c 0,-3.031 -2.469,-5.498 -5.5,-5.498 z m 0,0.998 h 629.002 c 2.492,0 4.502,2.008 4.502,4.5 v 349.002 c 0,2.491 -2.01,4.502 -4.502,4.502 h -629.002 c -2.491,0 -4.502,-2.011 -4.502,-4.502 v -349.002 c 0,-2.492 2.011,-4.5 4.502,-4.5 z m 0,0 c -2.335,0 -4.248,1.765 -4.478,4.039 -0.01,0.151 -0.02,0.305 -0.02,0.461 v 349.002 c 0,2.491 2.011,4.502 4.502,4.502 h 629.002 c 2.492,0 4.502,-2.011 4.502,-4.502 v -349.002 c 0,-2.492 -2.01,-4.5 -4.502,-4.5 z m -0.498,-20.998 a 5,5 0 0 0 -5,5 v 20.349 c 0.08,-2.963 2.517,-5.349 5.498,-5.349 h 629.002 c 3.031,0 5.5,2.467 5.5,5.498 v -20.498 a 5,5 0 0 0 -5,-5 z m 5.024,5.476 a 4.5240123,4.5240123 0 0 1 4.523,4.524 4.5240123,4.5240123 0 0 1 -4.523,4.523 4.5240123,4.5240123 0 0 1 -4.524,-4.523 4.5240123,4.5240123 0 0 1 4.524,-4.524 z m 13.976,0 a 4.5240123,4.5240123 0 0 1 4.524,4.524 4.5240123,4.5240123 0 0 1 -4.524,4.523 4.5240123,4.5240123 0 0 1 -4.523,-4.523 4.5240123,4.5240123 0 0 1 4.523,-4.524 z m 13.977,0 a 4.5240123,4.5240123 0 0 1 4.523,4.524 4.5240123,4.5240123 0 0 1 -4.523,4.523 4.5240123,4.5240123 0 0 1 -4.525,-4.523 4.5240123,4.5240123 0 0 1 4.525,-4.524 z" /><g
         id="g294"
         transform="translate(-604.95872,-1584.2268)"><path
           d="m -17514.543,12074.98 a 5,5 0 0 0 -5,5 v 20.349 c 0.08,-2.963 2.517,-5.349 5.498,-5.349 h 629.002 c 3.031,0 5.5,2.467 5.5,5.498 v -20.498 a 5,5 0 0 0 -5,-5 z m 5.024,5.476 a 4.5240123,4.5240123 0 0 1 4.523,4.524 4.5240123,4.5240123 0 0 1 -4.523,4.523 4.5240123,4.5240123 0 0 1 -4.524,-4.523 4.5240123,4.5240123 0 0 1 4.524,-4.524 z m 13.976,0 a 4.5240123,4.5240123 0 0 1 4.524,4.524 4.5240123,4.5240123 0 0 1 -4.524,4.523 4.5240123,4.5240123 0 0 1 -4.523,-4.523 4.5240123,4.5240123 0 0 1 4.523,-4.524 z m 13.977,0 a 4.5240123,4.5240123 0 0 1 4.523,4.524 4.5240123,4.5240123 0 0 1 -4.523,4.523 4.5240123,4.5240123 0 0 1 -4.525,-4.523 4.5240123,4.5240123 0 0 1 4.525,-4.524 z"
           style="opacity:1;fill:#f7f7f7;stroke-width:7.00403;stroke-linecap:round;stroke-linejoin:round;paint-order:fill markers stroke"
           id="path291" /><path
           d="m -17514.045,12095.978 c -2.335,0 -4.248,1.765 -4.478,4.039 -0.01,0.151 -0.02,0.305 -0.02,0.461 v 349.002 c 0,2.491 2.011,4.502 4.502,4.502 h 629.002 c 2.492,0 4.502,-2.011 4.502,-4.502 v -349.002 c 0,-2.492 -2.01,-4.5 -4.502,-4.5 z"
           style="baseline-shift:baseline;display:inline;overflow:visible;vector-effect:none;fill:#ededed;stroke-linecap:round;stroke-linejoin:round;paint-order:fill markers stroke;enable-background:accumulate;stop-color:#000000;stop-opacity:1"
           id="path292" /><path
           d="m -17514.045,12094.98 c -3.031,0 -5.5,2.467 -5.5,5.498 v 349.002 c 0,3.031 2.469,5.5 5.5,5.5 h 629.002 c 3.031,0 5.5,-2.469 5.5,-5.5 v -349.002 c 0,-3.031 -2.469,-5.498 -5.5,-5.498 z m 0,0.998 h 629.002 c 2.492,0 4.502,2.008 4.502,4.5 v 349.002 c 0,2.491 -2.01,4.502 -4.502,4.502 h -629.002 c -2.491,0 -4.502,-2.011 -4.502,-4.502 v -349.002 c 0,-2.492 2.011,-4.5 4.502,-4.5 z"
           style="baseline-shift:baseline;display:inline;overflow:visible;vector-effect:none;fill:#e5e5e5;stroke-linecap:round;stroke-linejoin:round;paint-order:fill markers stroke;enable-background:accumulate;stop-color:#000000;stop-opacity:1"
           id="path293" /><path
           d="m -17509.519,12080.456 a 4.5240123,4.5240123 0 0 0 -4.524,4.524 4.5240123,4.5240123 0 0 0 4.524,4.523 4.5240123,4.5240123 0 0 0 4.523,-4.523 4.5240123,4.5240123 0 0 0 -4.523,-4.524 z m 13.976,0 a 4.5240123,4.5240123 0 0 0 -4.523,4.524 4.5240123,4.5240123 0 0 0 4.523,4.523 4.5240123,4.5240123 0 0 0 4.524,-4.523 4.5240123,4.5240123 0 0 0 -4.524,-4.524 z m 13.977,0 a 4.5240123,4.5240123 0 0 0 -4.525,4.524 4.5240123,4.5240123 0 0 0 4.525,4.523 4.5240123,4.5240123 0 0 0 4.523,-4.523 4.5240123,4.5240123 0 0 0 -4.523,-4.524 z"
           style="opacity:1;fill:#e5e5e5;stroke-width:1.3619;stroke-linecap:round;stroke-linejoin:round;paint-order:fill markers stroke"
           id="path294" /></g></g></g></svg>
