<?xml version="1.0" encoding="UTF-8" standalone="no"?>
<!-- Created with Inkscape (http://www.inkscape.org/) -->

<svg
   width="1524.3086"
   height="394.28418"
   viewBox="0 0 1524.3086 394.28418"
   version="1.1"
   id="svg1"
   xmlns="http://www.w3.org/2000/svg"
   xmlns:svg="http://www.w3.org/2000/svg">
  <defs
     id="defs1" />
  <g
     id="layer1"
     transform="translate(15825,-9572)">
    <path
       id="path28-97-0-0-0-6-0-6-3-0-9-2-6-7-2-0"
       style="fill:#17191c;fill-opacity:1;stroke:#17191c;stroke-width:1.29274;stroke-linecap:round;stroke-linejoin:round;stroke-opacity:1;paint-order:fill markers stroke"
       d="m -15786.127,9885.5958 76.299,-45.7541 c 21.338,-12.3196 27.06,-22.5731 27.06,-46.868 v -212.5002 a 196.49625,196.49625 0 0 0 -141.586,188.6685 196.49625,196.49625 0 0 0 38.227,116.4538 z m 147.282,-312.6433 v 220.0212 c 0,40.5834 -15.296,62.3196 -49.02,84.9085 l -67.698,40.597 a 196.49625,196.49625 0 0 0 127.705,47.1584 196.49625,196.49625 0 0 0 127.708,-47.1584 l -67.698,-40.597 c -33.724,-22.5889 -49.024,-44.3251 -49.024,-84.9085 v -220.0212 a 196.49625,196.49625 0 0 0 -10.986,-0.3061 196.49625,196.49625 0 0 0 -10.987,0.3061 z m 65.9,7.521 v 212.5002 c 0,24.2949 5.719,34.5484 27.057,46.868 l 76.299,45.7541 a 196.49625,196.49625 0 0 0 38.226,-116.4538 196.49625,196.49625 0 0 0 -141.582,-188.6685 z" />
    <path
       id="path189-3-6-2"
       style="font-weight:bold;font-size:264.479px;font-family:'Trebuchet MS';-inkscape-font-specification:'Trebuchet MS Bold';letter-spacing:18.5962px;word-spacing:0px;fill:#17191c;fill-opacity:1;stroke:#17191c;stroke-width:1.23569;stroke-linecap:round;stroke-linejoin:round;paint-order:fill markers stroke"
       d="m -15297.367,9703.9909 v 129.1402 q 8.135,0.7748 17.563,0.7748 25.44,0 39.775,-18.467 14.464,-18.4671 14.464,-51.6561 0,-60.6959 -56.435,-60.6959 -5.423,0 -15.367,0.904 z m 8.394,159.7464 h -41.971 v -189.0612 q 40.163,-1.4205 50.494,-1.4205 41.325,0 65.474,24.2783 24.278,24.1492 24.278,64.1827 0,102.0207 -98.275,102.0207 z m 147.22,0 V 9674.547 h 33.576 v 189.1903 z m 231.29,-173.8227 -14.077,26.9903 q -5.94,-5.2947 -18.338,-10.4603 -12.397,-5.2948 -21.308,-5.2948 -27.894,0 -44.037,18.9836 -16.142,18.8545 -16.142,50.623 0,30.2188 15.755,48.2984 15.884,18.0796 43.133,18.0796 17.95,0 29.573,-9.8146 v -37.1924 h -26.215 v -28.6691 h 59.791 v 84.7159 q -12.01,9.8147 -30.993,15.3677 -18.855,5.4239 -37.58,5.4239 -40.679,0 -64.57,-26.6029 -23.762,-26.732 -23.762,-70.5105 0,-43.7785 25.957,-71.1562 25.958,-27.3777 69.865,-27.3777 31.123,0 52.948,18.5961 z m 57.079,173.8227 V 9674.547 h 33.577 v 189.1903 z m 168.528,-159.359 v 159.359 h -33.576 v -159.359 h -60.179 v -29.8313 h 156.647 v 29.8313 z m 142.442,25.4406 -22.729,69.8649 h 45.458 z m 46.361,133.9184 -13.818,-38.3547 h -64.828 l -13.172,38.3547 h -37.322 l 75.418,-191.7731 h 14.722 l 76.063,191.7731 z m 75.676,0 V 9674.547 h 33.577 v 159.3589 h 85.491 v 29.8314 z" />
  </g>
</svg>
